<svg width="19" height="19" viewBox="0 0 19 19" fill="none" xmlns="http://www.w3.org/2000/svg">
<path d="M12.2898 9.43761C12.2898 10.2137 11.9815 10.9579 11.4327 11.5067C10.884 12.0555 10.1397 12.3637 9.36364 12.3637C8.58758 12.3637 7.8433 12.0555 7.29455 11.5067C6.74579 10.9579 6.4375 10.2137 6.4375 9.43761C6.4375 8.66155 6.74579 7.91728 7.29455 7.36852C7.8433 6.81976 8.58758 6.51147 9.36364 6.51147C10.1397 6.51147 10.884 6.81976 11.4327 7.36852C11.9815 7.91728 12.2898 8.66155 12.2898 9.43761V9.43761Z" fill="#383838"/>
<path d="M0 9.4375C0 9.4375 3.51136 3 9.36364 3C15.2159 3 18.7273 9.4375 18.7273 9.4375C18.7273 9.4375 15.2159 15.875 9.36364 15.875C3.51136 15.875 0 9.4375 0 9.4375ZM9.36364 13.5341C10.4501 13.5341 11.4921 13.1025 12.2604 12.3342C13.0286 11.566 13.4602 10.524 13.4602 9.4375C13.4602 8.35102 13.0286 7.30903 12.2604 6.54077C11.4921 5.77251 10.4501 5.34091 9.36364 5.34091C8.27715 5.34091 7.23517 5.77251 6.46691 6.54077C5.69865 7.30903 5.26705 8.35102 5.26705 9.4375C5.26705 10.524 5.69865 11.566 6.46691 12.3342C7.23517 13.1025 8.27715 13.5341 9.36364 13.5341V13.5341Z" fill="#383838"/>
</svg>
