<svg width="200" height="39" viewBox="0 0 200 39" fill="none" xmlns="http://www.w3.org/2000/svg">
<path d="M13.2128 0.128585C9.82526 1.07396 6.81846 5.98464 4.08738 14.9788C3.11575 18.2088 1.67143 24.5507 0.949276 28.7786C0.4372 31.8248 -0.0486161 34.9366 0.00390458 34.976C0.0301649 35.0023 0.148336 34.7397 0.266508 34.3983C2.86628 27.1242 5.34788 21.5439 7.15984 18.931C8.35469 17.1978 9.52327 16.3575 11.4403 15.8454C13.3573 15.3333 14.4602 14.5586 16.1146 12.5891C16.6923 11.9063 17.4014 11.1579 17.6902 10.9084C18.1892 10.5014 18.2942 10.462 19.1083 10.462C19.8567 10.462 20.0799 10.5145 20.5789 10.8297C23.8351 12.9174 27.7873 22.0953 31.2143 35.5406C31.9496 38.4555 32.0152 38.6393 31.9102 37.6415C31.4769 33.1247 30.3608 26.7697 29.3498 22.9357C27.1571 14.6505 24.4654 8.74197 21.0516 4.71101C17.9528 1.04769 15.3531 -0.475402 13.2128 0.128585Z" fill="#5B5B5B"/>
<path d="M17.8347 14.296C17.5984 14.4405 17.1125 14.9919 16.7712 15.504C15.3794 17.5655 14.2633 18.4058 12.1625 18.9835C10.7969 19.3643 9.96974 19.7976 9.22132 20.5329C7.84265 21.8721 6.45085 24.577 5.21662 28.3191C4.49446 30.5249 3.62787 33.4792 3.69352 33.5449C3.70665 33.5711 3.91673 33.1247 4.12681 32.5601C5.40044 29.3038 6.76598 26.5334 7.97395 24.7476C9.23445 22.8963 10.5343 21.859 12.3726 21.2288C13.3573 20.8874 14.6178 20.1521 15.1168 19.64C15.34 19.4168 15.9308 18.6421 16.4298 17.92C17.5064 16.3706 17.8872 16.0424 18.5963 16.0555C19.6729 16.0949 20.8678 17.2109 22.2596 19.535C23.7564 22.0428 25.529 26.2707 27.2622 31.444C27.8268 33.1116 27.6955 32.245 27.0652 30.0916C24.4786 21.255 21.6425 15.3333 19.476 14.2829C18.7669 13.9415 18.3862 13.9415 17.8347 14.296Z" fill="#FEC110"/>
<path d="M18.8589 21.1894C18.5569 21.3207 18.2418 21.6621 17.6378 22.5024C16.7974 23.7235 16.1672 24.1699 14.6178 24.6689C13.3705 25.0628 13.226 25.1547 12.4908 25.89C11.4272 26.9535 10.6919 28.411 9.66777 31.444C8.86683 33.8469 8.65674 34.9235 9.31325 33.2691C10.298 30.8007 11.611 28.5029 12.6352 27.4656C13.1735 26.9141 13.7906 26.5728 15.0905 26.0738C16.0359 25.7193 16.9813 24.879 17.6903 23.7892C17.9923 23.3296 18.3731 22.8569 18.5438 22.7387C19.6073 22.0428 20.8284 23.1064 22.3646 26.1001C23.0999 27.5313 23.9796 29.5402 23.9796 29.7896C23.9796 29.8947 24.0322 30.026 24.0978 30.1048C24.216 30.2229 24.3079 30.4593 24.8988 32.1925C25.3714 33.5317 25.3977 33.2166 24.9381 31.746C23.7433 27.8858 22.3909 24.6164 21.2486 22.87C20.7102 22.0428 19.8962 21.2288 19.581 21.2288C19.4891 21.2288 19.3316 21.2025 19.2265 21.1763C19.1346 21.1369 18.9639 21.15 18.8589 21.1894Z" fill="#5B5B5B"/>
<path d="M56.0085 13.83C56.4592 13.83 56.8319 13.9773 57.1265 14.272C57.4212 14.5667 57.5685 14.948 57.5685 15.416V26.414C57.5685 26.8647 57.4212 27.246 57.1265 27.558C56.8319 27.8527 56.4592 28 56.0085 28C55.5579 28 55.1852 27.8527 54.8905 27.558C54.5959 27.246 54.4485 26.8647 54.4485 26.414V25.14L55.0205 25.374C55.0205 25.5993 54.8992 25.8767 54.6565 26.206C54.4139 26.518 54.0845 26.83 53.6685 27.142C53.2525 27.454 52.7585 27.7227 52.1865 27.948C51.6319 28.156 51.0252 28.26 50.3665 28.26C49.1705 28.26 48.0872 27.9567 47.1165 27.35C46.1459 26.726 45.3745 25.8767 44.8025 24.802C44.2479 23.71 43.9705 22.462 43.9705 21.058C43.9705 19.6367 44.2479 18.3887 44.8025 17.314C45.3745 16.222 46.1372 15.3727 47.0905 14.766C48.0439 14.142 49.1012 13.83 50.2625 13.83C51.0079 13.83 51.6925 13.9427 52.3165 14.168C52.9405 14.3933 53.4779 14.6793 53.9285 15.026C54.3965 15.3727 54.7519 15.728 54.9945 16.092C55.2545 16.4387 55.3845 16.7333 55.3845 16.976L54.4485 17.314V15.416C54.4485 14.9653 54.5959 14.5927 54.8905 14.298C55.1852 13.986 55.5579 13.83 56.0085 13.83ZM50.7565 25.4C51.5192 25.4 52.1865 25.2093 52.7585 24.828C53.3305 24.4467 53.7725 23.9267 54.0845 23.268C54.4139 22.6093 54.5785 21.8727 54.5785 21.058C54.5785 20.226 54.4139 19.4807 54.0845 18.822C53.7725 18.1633 53.3305 17.6433 52.7585 17.262C52.1865 16.8807 51.5192 16.69 50.7565 16.69C50.0112 16.69 49.3525 16.8807 48.7805 17.262C48.2085 17.6433 47.7579 18.1633 47.4285 18.822C47.1165 19.4807 46.9605 20.226 46.9605 21.058C46.9605 21.8727 47.1165 22.6093 47.4285 23.268C47.7579 23.9267 48.2085 24.4467 48.7805 24.828C49.3525 25.2093 50.0112 25.4 50.7565 25.4ZM68.3858 13.83C69.6684 13.83 70.6391 14.0987 71.2978 14.636C71.9738 15.1733 72.4331 15.8927 72.6758 16.794C72.9358 17.678 73.0658 18.666 73.0658 19.758V26.414C73.0658 26.8647 72.9184 27.246 72.6238 27.558C72.3291 27.8527 71.9564 28 71.5058 28C71.0551 28 70.6824 27.8527 70.3878 27.558C70.0931 27.246 69.9458 26.8647 69.9458 26.414V19.758C69.9458 19.186 69.8678 18.6747 69.7118 18.224C69.5731 17.756 69.3131 17.3833 68.9318 17.106C68.5504 16.8287 68.0044 16.69 67.2938 16.69C66.6004 16.69 66.0111 16.8287 65.5258 17.106C65.0578 17.3833 64.6938 17.756 64.4338 18.224C64.1911 18.6747 64.0698 19.186 64.0698 19.758V26.414C64.0698 26.8647 63.9224 27.246 63.6278 27.558C63.3331 27.8527 62.9604 28 62.5098 28C62.0591 28 61.6864 27.8527 61.3918 27.558C61.0971 27.246 60.9498 26.8647 60.9498 26.414V15.676C60.9498 15.2253 61.0971 14.8527 61.3918 14.558C61.6864 14.246 62.0591 14.09 62.5098 14.09C62.9604 14.09 63.3331 14.246 63.6278 14.558C63.9224 14.8527 64.0698 15.2253 64.0698 15.676V16.794L63.6798 16.716C63.8358 16.4213 64.0611 16.1093 64.3558 15.78C64.6504 15.4333 64.9971 15.1127 65.3958 14.818C65.7944 14.5233 66.2451 14.2893 66.7478 14.116C67.2504 13.9253 67.7964 13.83 68.3858 13.83ZM87.696 13.83C88.1467 13.83 88.5194 13.9773 88.814 14.272C89.1087 14.5667 89.256 14.948 89.256 15.416V26.414C89.256 26.8647 89.1087 27.246 88.814 27.558C88.5194 27.8527 88.1467 28 87.696 28C87.2454 28 86.8727 27.8527 86.578 27.558C86.2834 27.246 86.136 26.8647 86.136 26.414V25.14L86.708 25.374C86.708 25.5993 86.5867 25.8767 86.344 26.206C86.1014 26.518 85.772 26.83 85.356 27.142C84.94 27.454 84.446 27.7227 83.874 27.948C83.3194 28.156 82.7127 28.26 82.054 28.26C80.858 28.26 79.7747 27.9567 78.804 27.35C77.8334 26.726 77.062 25.8767 76.49 24.802C75.9354 23.71 75.658 22.462 75.658 21.058C75.658 19.6367 75.9354 18.3887 76.49 17.314C77.062 16.222 77.8247 15.3727 78.778 14.766C79.7314 14.142 80.7887 13.83 81.95 13.83C82.6954 13.83 83.38 13.9427 84.004 14.168C84.628 14.3933 85.1654 14.6793 85.616 15.026C86.084 15.3727 86.4394 15.728 86.682 16.092C86.942 16.4387 87.072 16.7333 87.072 16.976L86.136 17.314V15.416C86.136 14.9653 86.2834 14.5927 86.578 14.298C86.8727 13.986 87.2454 13.83 87.696 13.83ZM82.444 25.4C83.2067 25.4 83.874 25.2093 84.446 24.828C85.018 24.4467 85.46 23.9267 85.772 23.268C86.1014 22.6093 86.266 21.8727 86.266 21.058C86.266 20.226 86.1014 19.4807 85.772 18.822C85.46 18.1633 85.018 17.6433 84.446 17.262C83.874 16.8807 83.2067 16.69 82.444 16.69C81.6987 16.69 81.04 16.8807 80.468 17.262C79.896 17.6433 79.4454 18.1633 79.116 18.822C78.804 19.4807 78.648 20.226 78.648 21.058C78.648 21.8727 78.804 22.6093 79.116 23.268C79.4454 23.9267 79.896 24.4467 80.468 24.828C81.04 25.2093 81.6987 25.4 82.444 25.4ZM91.8313 25.842C91.6579 25.5993 91.5799 25.2873 91.5973 24.906C91.6146 24.5247 91.8399 24.1953 92.2733 23.918C92.5506 23.7447 92.8453 23.6753 93.1573 23.71C93.4693 23.7273 93.7726 23.8833 94.0673 24.178C94.5699 24.6807 95.0986 25.0707 95.6533 25.348C96.2079 25.6253 96.9013 25.764 97.7333 25.764C97.9933 25.7467 98.2793 25.712 98.5913 25.66C98.9033 25.5907 99.1719 25.452 99.3973 25.244C99.6399 25.0187 99.7613 24.6807 99.7613 24.23C99.7613 23.8487 99.6313 23.5453 99.3713 23.32C99.1113 23.0947 98.7646 22.904 98.3313 22.748C97.9153 22.592 97.4473 22.4447 96.9273 22.306C96.3899 22.15 95.8353 21.9767 95.2633 21.786C94.7086 21.5953 94.1973 21.3527 93.7293 21.058C93.2613 20.746 92.8799 20.3387 92.5853 19.836C92.2906 19.3333 92.1433 18.7007 92.1433 17.938C92.1433 17.0713 92.3859 16.3347 92.8713 15.728C93.3566 15.1213 93.9806 14.6533 94.7433 14.324C95.5233 13.9947 96.3379 13.83 97.1873 13.83C97.7246 13.83 98.2879 13.8993 98.8773 14.038C99.4666 14.1593 100.03 14.3673 100.567 14.662C101.105 14.9393 101.555 15.312 101.919 15.78C102.11 16.04 102.223 16.352 102.257 16.716C102.292 17.08 102.127 17.4093 101.763 17.704C101.503 17.912 101.2 18.0073 100.853 17.99C100.507 17.9553 100.221 17.834 99.9953 17.626C99.7006 17.2447 99.3019 16.9413 98.7993 16.716C98.3139 16.4907 97.7506 16.378 97.1093 16.378C96.8493 16.378 96.5633 16.4127 96.2513 16.482C95.9566 16.534 95.6966 16.664 95.4713 16.872C95.2459 17.0627 95.1333 17.3747 95.1333 17.808C95.1333 18.2067 95.2633 18.5273 95.5233 18.77C95.7833 18.9953 96.1299 19.186 96.5633 19.342C97.0139 19.4807 97.4906 19.6193 97.9933 19.758C98.5133 19.8967 99.0419 20.0613 99.5793 20.252C100.117 20.4427 100.611 20.694 101.061 21.006C101.512 21.318 101.876 21.7253 102.153 22.228C102.431 22.7133 102.569 23.3373 102.569 24.1C102.569 24.984 102.309 25.738 101.789 26.362C101.269 26.986 100.619 27.4627 99.8393 27.792C99.0593 28.104 98.2619 28.26 97.4473 28.26C96.4246 28.26 95.4019 28.0867 94.3793 27.74C93.3566 27.376 92.5073 26.7433 91.8313 25.842ZM112.486 13.83C113.734 13.83 114.679 14.0987 115.32 14.636C115.979 15.1733 116.43 15.8927 116.672 16.794C116.915 17.678 117.036 18.666 117.036 19.758V26.414C117.036 26.8647 116.889 27.246 116.594 27.558C116.3 27.8527 115.927 28 115.476 28C115.026 28 114.653 27.8527 114.358 27.558C114.064 27.246 113.916 26.8647 113.916 26.414V19.758C113.916 19.186 113.847 18.6747 113.708 18.224C113.57 17.756 113.318 17.3833 112.954 17.106C112.59 16.8287 112.07 16.69 111.394 16.69C110.736 16.69 110.172 16.8287 109.704 17.106C109.236 17.3833 108.881 17.756 108.638 18.224C108.413 18.6747 108.3 19.186 108.3 19.758V26.414C108.3 26.8647 108.153 27.246 107.858 27.558C107.564 27.8527 107.191 28 106.74 28C106.29 28 105.917 27.8527 105.622 27.558C105.328 27.246 105.18 26.8647 105.18 26.414V10.346C105.18 9.89533 105.328 9.52267 105.622 9.228C105.917 8.916 106.29 8.76 106.74 8.76C107.191 8.76 107.564 8.916 107.858 9.228C108.153 9.52267 108.3 9.89533 108.3 10.346V16.794L107.91 16.716C108.066 16.4213 108.283 16.1093 108.56 15.78C108.838 15.4333 109.176 15.1127 109.574 14.818C109.973 14.5233 110.415 14.2893 110.9 14.116C111.386 13.9253 111.914 13.83 112.486 13.83ZM133.779 21.058C133.779 22.4793 133.458 23.736 132.817 24.828C132.193 25.9027 131.343 26.7433 130.269 27.35C129.211 27.9567 128.024 28.26 126.707 28.26C125.389 28.26 124.193 27.9567 123.119 27.35C122.061 26.7433 121.212 25.9027 120.571 24.828C119.947 23.736 119.635 22.4793 119.635 21.058C119.635 19.6367 119.947 18.3887 120.571 17.314C121.212 16.222 122.061 15.3727 123.119 14.766C124.193 14.142 125.389 13.83 126.707 13.83C128.024 13.83 129.211 14.142 130.269 14.766C131.343 15.3727 132.193 16.222 132.817 17.314C133.458 18.3887 133.779 19.6367 133.779 21.058ZM130.659 21.058C130.659 20.174 130.477 19.4113 130.113 18.77C129.766 18.1113 129.289 17.6 128.683 17.236C128.093 16.872 127.435 16.69 126.707 16.69C125.979 16.69 125.311 16.872 124.705 17.236C124.115 17.6 123.639 18.1113 123.275 18.77C122.928 19.4113 122.755 20.174 122.755 21.058C122.755 21.9247 122.928 22.6873 123.275 23.346C123.639 23.9873 124.115 24.49 124.705 24.854C125.311 25.218 125.979 25.4 126.707 25.4C127.435 25.4 128.093 25.218 128.683 24.854C129.289 24.49 129.766 23.9873 130.113 23.346C130.477 22.6873 130.659 21.9247 130.659 21.058ZM143.535 8.76C143.917 8.76 144.289 8.812 144.653 8.916C145.017 9.02 145.321 9.19333 145.563 9.436C145.806 9.66133 145.927 9.96467 145.927 10.346C145.927 10.7793 145.797 11.126 145.537 11.386C145.295 11.6287 145.009 11.75 144.679 11.75C144.523 11.75 144.289 11.7153 143.977 11.646C143.665 11.5593 143.362 11.516 143.067 11.516C142.634 11.516 142.296 11.6113 142.053 11.802C141.828 11.9927 141.672 12.218 141.585 12.478C141.499 12.7207 141.455 12.9373 141.455 13.128V26.414C141.455 26.8647 141.308 27.246 141.013 27.558C140.719 27.8527 140.346 28 139.895 28C139.445 28 139.072 27.8527 138.777 27.558C138.483 27.246 138.335 26.8647 138.335 26.414V13.154C138.335 11.9233 138.769 10.8833 139.635 10.034C140.502 9.18467 141.802 8.76 143.535 8.76ZM143.821 14.35C144.237 14.35 144.584 14.4887 144.861 14.766C145.139 15.026 145.277 15.364 145.277 15.78C145.277 16.196 145.139 16.5427 144.861 16.82C144.584 17.08 144.237 17.21 143.821 17.21H136.931C136.515 17.21 136.169 17.08 135.891 16.82C135.614 16.5427 135.475 16.196 135.475 15.78C135.475 15.364 135.614 15.026 135.891 14.766C136.169 14.4887 136.515 14.35 136.931 14.35H143.821ZM157.549 14.09C158 14.09 158.372 14.246 158.667 14.558C158.962 14.8527 159.109 15.2253 159.109 15.676V26.726C159.109 28.3207 158.806 29.586 158.199 30.522C157.61 31.4753 156.812 32.16 155.807 32.576C154.802 32.992 153.675 33.2 152.427 33.2C151.872 33.2 151.283 33.1567 150.659 33.07C150.035 32.9833 149.524 32.8533 149.125 32.68C148.605 32.4547 148.241 32.1687 148.033 31.822C147.842 31.4927 147.808 31.1373 147.929 30.756C148.085 30.2533 148.336 29.9067 148.683 29.716C149.03 29.5427 149.394 29.5253 149.775 29.664C150.052 29.7507 150.416 29.8807 150.867 30.054C151.318 30.2447 151.838 30.34 152.427 30.34C153.224 30.34 153.883 30.2273 154.403 30.002C154.94 29.794 155.339 29.43 155.599 28.91C155.876 28.4073 156.015 27.714 156.015 26.83V25.088L156.561 25.712C156.266 26.284 155.894 26.7607 155.443 27.142C155.01 27.506 154.49 27.7833 153.883 27.974C153.276 28.1647 152.583 28.26 151.803 28.26C150.884 28.26 150.078 28.052 149.385 27.636C148.709 27.2027 148.18 26.6133 147.799 25.868C147.418 25.1053 147.227 24.2387 147.227 23.268V15.676C147.227 15.2253 147.374 14.8527 147.669 14.558C147.964 14.246 148.336 14.09 148.787 14.09C149.238 14.09 149.61 14.246 149.905 14.558C150.2 14.8527 150.347 15.2253 150.347 15.676V22.332C150.347 23.4587 150.59 24.256 151.075 24.724C151.578 25.1747 152.271 25.4 153.155 25.4C153.762 25.4 154.273 25.2873 154.689 25.062C155.105 24.8193 155.426 24.4727 155.651 24.022C155.876 23.554 155.989 22.9907 155.989 22.332V15.676C155.989 15.2253 156.136 14.8527 156.431 14.558C156.726 14.246 157.098 14.09 157.549 14.09ZM174.786 13.83C175.237 13.83 175.609 13.9773 175.904 14.272C176.199 14.5667 176.346 14.948 176.346 15.416V26.414C176.346 26.8647 176.199 27.246 175.904 27.558C175.609 27.8527 175.237 28 174.786 28C174.335 28 173.963 27.8527 173.668 27.558C173.373 27.246 173.226 26.8647 173.226 26.414V25.14L173.798 25.374C173.798 25.5993 173.677 25.8767 173.434 26.206C173.191 26.518 172.862 26.83 172.446 27.142C172.03 27.454 171.536 27.7227 170.964 27.948C170.409 28.156 169.803 28.26 169.144 28.26C167.948 28.26 166.865 27.9567 165.894 27.35C164.923 26.726 164.152 25.8767 163.58 24.802C163.025 23.71 162.748 22.462 162.748 21.058C162.748 19.6367 163.025 18.3887 163.58 17.314C164.152 16.222 164.915 15.3727 165.868 14.766C166.821 14.142 167.879 13.83 169.04 13.83C169.785 13.83 170.47 13.9427 171.094 14.168C171.718 14.3933 172.255 14.6793 172.706 15.026C173.174 15.3727 173.529 15.728 173.772 16.092C174.032 16.4387 174.162 16.7333 174.162 16.976L173.226 17.314V15.416C173.226 14.9653 173.373 14.5927 173.668 14.298C173.963 13.986 174.335 13.83 174.786 13.83ZM169.534 25.4C170.297 25.4 170.964 25.2093 171.536 24.828C172.108 24.4467 172.55 23.9267 172.862 23.268C173.191 22.6093 173.356 21.8727 173.356 21.058C173.356 20.226 173.191 19.4807 172.862 18.822C172.55 18.1633 172.108 17.6433 171.536 17.262C170.964 16.8807 170.297 16.69 169.534 16.69C168.789 16.69 168.13 16.8807 167.558 17.262C166.986 17.6433 166.535 18.1633 166.206 18.822C165.894 19.4807 165.738 20.226 165.738 21.058C165.738 21.8727 165.894 22.6093 166.206 23.268C166.535 23.9267 166.986 24.4467 167.558 24.828C168.13 25.2093 168.789 25.4 169.534 25.4ZM187.163 13.83C188.446 13.83 189.416 14.0987 190.075 14.636C190.751 15.1733 191.21 15.8927 191.453 16.794C191.713 17.678 191.843 18.666 191.843 19.758V26.414C191.843 26.8647 191.696 27.246 191.401 27.558C191.106 27.8527 190.734 28 190.283 28C189.832 28 189.46 27.8527 189.165 27.558C188.87 27.246 188.723 26.8647 188.723 26.414V19.758C188.723 19.186 188.645 18.6747 188.489 18.224C188.35 17.756 188.09 17.3833 187.709 17.106C187.328 16.8287 186.782 16.69 186.071 16.69C185.378 16.69 184.788 16.8287 184.303 17.106C183.835 17.3833 183.471 17.756 183.211 18.224C182.968 18.6747 182.847 19.186 182.847 19.758V26.414C182.847 26.8647 182.7 27.246 182.405 27.558C182.11 27.8527 181.738 28 181.287 28C180.836 28 180.464 27.8527 180.169 27.558C179.874 27.246 179.727 26.8647 179.727 26.414V15.676C179.727 15.2253 179.874 14.8527 180.169 14.558C180.464 14.246 180.836 14.09 181.287 14.09C181.738 14.09 182.11 14.246 182.405 14.558C182.7 14.8527 182.847 15.2253 182.847 15.676V16.794L182.457 16.716C182.613 16.4213 182.838 16.1093 183.133 15.78C183.428 15.4333 183.774 15.1127 184.173 14.818C184.572 14.5233 185.022 14.2893 185.525 14.116C186.028 13.9253 186.574 13.83 187.163 13.83Z" fill="#5B5B5B"/>
<path d="M196.593 27.974C196.091 27.974 195.701 27.844 195.423 27.584C195.163 27.3067 195.033 26.9167 195.033 26.414V25.972C195.033 25.4693 195.163 25.088 195.423 24.828C195.701 24.5507 196.091 24.412 196.593 24.412H196.931C197.434 24.412 197.815 24.5507 198.075 24.828C198.353 25.088 198.491 25.4693 198.491 25.972V26.414C198.491 26.9167 198.353 27.3067 198.075 27.584C197.815 27.844 197.434 27.974 196.931 27.974H196.593Z" fill="#FEC110"/>
</svg>
